<mxfile host="app.diagrams.net" modified="2023-11-18T10:16:20.014Z" agent="Mozilla/5.0 (Macintosh; Intel Mac OS X 10.15; rv:109.0) Gecko/20100101 Firefox/119.0" etag="P41mZ1nt9hoAEYpMAWeC" version="22.1.3" type="device" pages="2">
  <diagram name="Fabric" id="OIPJMWk6n2MAYTslY0qE">
    <mxGraphModel dx="1112" dy="610" grid="1" gridSize="10" guides="1" tooltips="1" connect="1" arrows="1" fold="1" page="1" pageScale="1" pageWidth="827" pageHeight="1169" math="0" shadow="0">
      <root>
        <mxCell id="0" />
        <mxCell id="1" parent="0" />
        <mxCell id="PzM4Yw7L1jjKBA7LwHpk-8" style="edgeStyle=none;rounded=0;orthogonalLoop=1;jettySize=auto;html=1;exitX=0.5;exitY=0;exitDx=0;exitDy=0;exitPerimeter=0;endArrow=none;endFill=0;entryX=0.309;entryY=0.976;entryDx=0;entryDy=0;entryPerimeter=0;fontSize=10;" parent="1" source="PzM4Yw7L1jjKBA7LwHpk-2" target="PzM4Yw7L1jjKBA7LwHpk-1" edge="1">
          <mxGeometry relative="1" as="geometry">
            <mxPoint x="330" y="240" as="targetPoint" />
          </mxGeometry>
        </mxCell>
        <mxCell id="PzM4Yw7L1jjKBA7LwHpk-2" value="LEAF1" style="sketch=0;points=[[0.015,0.015,0],[0.985,0.015,0],[0.985,0.985,0],[0.015,0.985,0],[0.25,0,0],[0.5,0,0],[0.75,0,0],[1,0.25,0],[1,0.5,0],[1,0.75,0],[0.75,1,0],[0.5,1,0],[0.25,1,0],[0,0.75,0],[0,0.5,0],[0,0.25,0]];verticalLabelPosition=bottom;html=1;verticalAlign=top;aspect=fixed;align=center;pointerEvents=1;shape=mxgraph.cisco19.rect;prIcon=workgroup_switch;fillColor=#FAFAFA;strokeColor=#005073;fontSize=10;" parent="1" vertex="1">
          <mxGeometry x="230" y="330" width="50" height="50" as="geometry" />
        </mxCell>
        <mxCell id="PzM4Yw7L1jjKBA7LwHpk-4" value="LEAF2" style="sketch=0;points=[[0.015,0.015,0],[0.985,0.015,0],[0.985,0.985,0],[0.015,0.985,0],[0.25,0,0],[0.5,0,0],[0.75,0,0],[1,0.25,0],[1,0.5,0],[1,0.75,0],[0.75,1,0],[0.5,1,0],[0.25,1,0],[0,0.75,0],[0,0.5,0],[0,0.25,0]];verticalLabelPosition=bottom;html=1;verticalAlign=top;aspect=fixed;align=center;pointerEvents=1;shape=mxgraph.cisco19.rect;prIcon=workgroup_switch;fillColor=#FAFAFA;strokeColor=#005073;fontSize=10;" parent="1" vertex="1">
          <mxGeometry x="334" y="330" width="50" height="50" as="geometry" />
        </mxCell>
        <mxCell id="PzM4Yw7L1jjKBA7LwHpk-11" style="edgeStyle=none;rounded=0;orthogonalLoop=1;jettySize=auto;html=1;exitX=0.5;exitY=0;exitDx=0;exitDy=0;exitPerimeter=0;entryX=0.701;entryY=1.04;entryDx=0;entryDy=0;entryPerimeter=0;endArrow=none;endFill=0;fontSize=10;" parent="1" source="PzM4Yw7L1jjKBA7LwHpk-4" target="PzM4Yw7L1jjKBA7LwHpk-1" edge="1">
          <mxGeometry relative="1" as="geometry" />
        </mxCell>
        <mxCell id="PzM4Yw7L1jjKBA7LwHpk-1" value="SPINE1" style="sketch=0;points=[[0.015,0.015,0],[0.985,0.015,0],[0.985,0.985,0],[0.015,0.985,0],[0.25,0,0],[0.5,0,0],[0.75,0,0],[1,0.25,0],[1,0.5,0],[1,0.75,0],[0.75,1,0],[0.5,1,0],[0.25,1,0],[0,0.75,0],[0,0.5,0],[0,0.25,0]];verticalLabelPosition=bottom;html=1;verticalAlign=top;aspect=fixed;align=center;pointerEvents=1;shape=mxgraph.cisco19.rect;prIcon=l3_switch;fillColor=#FAFAFA;strokeColor=#005073;fontSize=10;" parent="1" vertex="1">
          <mxGeometry x="280" y="200" width="50" height="50" as="geometry" />
        </mxCell>
        <mxCell id="Bby_qhcTCkHqQ1vZCkiB-2" value="APIC1" style="sketch=0;points=[[0.015,0.015,0],[0.985,0.015,0],[0.985,0.985,0],[0.015,0.985,0],[0.25,0,0],[0.5,0,0],[0.75,0,0],[1,0.25,0],[1,0.5,0],[1,0.75,0],[0.75,1,0],[0.5,1,0],[0.25,1,0],[0,0.75,0],[0,0.5,0],[0,0.25,0]];verticalLabelPosition=bottom;html=1;verticalAlign=top;aspect=fixed;align=center;pointerEvents=1;shape=mxgraph.cisco19.server;fillColor=#005073;strokeColor=none;" vertex="1" parent="1">
          <mxGeometry x="241" y="430" width="27.500000000000004" height="50" as="geometry" />
        </mxCell>
        <mxCell id="Bby_qhcTCkHqQ1vZCkiB-3" style="edgeStyle=orthogonalEdgeStyle;rounded=0;orthogonalLoop=1;jettySize=auto;html=1;exitX=0.5;exitY=0;exitDx=0;exitDy=0;exitPerimeter=0;entryX=0.489;entryY=1.069;entryDx=0;entryDy=0;entryPerimeter=0;endArrow=none;endFill=0;" edge="1" parent="1" source="Bby_qhcTCkHqQ1vZCkiB-2" target="PzM4Yw7L1jjKBA7LwHpk-2">
          <mxGeometry relative="1" as="geometry" />
        </mxCell>
      </root>
    </mxGraphModel>
  </diagram>
  <diagram id="nBC4kXDsKFdMpgowvClM" name="Tenants">
    <mxGraphModel dx="570" dy="313" grid="1" gridSize="10" guides="1" tooltips="1" connect="1" arrows="1" fold="1" page="1" pageScale="1" pageWidth="827" pageHeight="1169" math="0" shadow="0">
      <root>
        <mxCell id="0" />
        <mxCell id="1" parent="0" />
        <mxCell id="jl3WwSV1_X9RbyCpQwBn-3" value="" style="rounded=1;whiteSpace=wrap;html=1;strokeColor=#660066;" vertex="1" parent="1">
          <mxGeometry x="440" y="270" width="160" height="175" as="geometry" />
        </mxCell>
        <mxCell id="jl3WwSV1_X9RbyCpQwBn-4" value="TENANTn" style="text;html=1;align=center;verticalAlign=middle;resizable=0;points=[];autosize=1;strokeColor=none;fillColor=none;fontColor=#660066;" vertex="1" parent="1">
          <mxGeometry x="480" y="247.5" width="80" height="30" as="geometry" />
        </mxCell>
        <mxCell id="jl3WwSV1_X9RbyCpQwBn-1" value="" style="rounded=1;whiteSpace=wrap;html=1;strokeColor=#990000;" vertex="1" parent="1">
          <mxGeometry x="120" y="270" width="160" height="175" as="geometry" />
        </mxCell>
        <mxCell id="gHcmGsEf7F4D5HZ_kAoh-1" value="App" style="sketch=0;points=[[0.015,0.015,0],[0.985,0.015,0],[0.985,0.985,0],[0.015,0.985,0],[0.25,0,0],[0.5,0,0],[0.75,0,0],[1,0.25,0],[1,0.5,0],[1,0.75,0],[0.75,1,0],[0.5,1,0],[0.25,1,0],[0,0.75,0],[0,0.5,0],[0,0.25,0]];verticalLabelPosition=bottom;html=1;verticalAlign=top;aspect=fixed;align=center;pointerEvents=1;shape=mxgraph.cisco19.server;fillColor=#005073;strokeColor=none;" vertex="1" parent="1">
          <mxGeometry x="130" y="280" width="27.500000000000004" height="50" as="geometry" />
        </mxCell>
        <mxCell id="gHcmGsEf7F4D5HZ_kAoh-2" value="DB" style="sketch=0;points=[[0.015,0.015,0],[0.985,0.015,0],[0.985,0.985,0],[0.015,0.985,0],[0.25,0,0],[0.5,0,0],[0.75,0,0],[1,0.25,0],[1,0.5,0],[1,0.75,0],[0.75,1,0],[0.5,1,0],[0.25,1,0],[0,0.75,0],[0,0.5,0],[0,0.25,0]];verticalLabelPosition=bottom;html=1;verticalAlign=top;aspect=fixed;align=center;pointerEvents=1;shape=mxgraph.cisco19.server;fillColor=#005073;strokeColor=none;" vertex="1" parent="1">
          <mxGeometry x="130" y="370" width="27.500000000000004" height="50" as="geometry" />
        </mxCell>
        <mxCell id="gHcmGsEf7F4D5HZ_kAoh-3" value="" style="sketch=0;points=[[0.015,0.015,0],[0.985,0.015,0],[0.985,0.985,0],[0.015,0.985,0],[0.25,0,0],[0.5,0,0],[0.75,0,0],[1,0.25,0],[1,0.5,0],[1,0.75,0],[0.75,1,0],[0.5,1,0],[0.25,1,0],[0,0.75,0],[0,0.5,0],[0,0.25,0]];verticalLabelPosition=bottom;html=1;verticalAlign=top;aspect=fixed;align=center;pointerEvents=1;shape=mxgraph.cisco19.rect;prIcon=firewall;fillColor=#FAFAFA;strokeColor=#005073;" vertex="1" parent="1">
          <mxGeometry x="200" y="320" width="64" height="50" as="geometry" />
        </mxCell>
        <mxCell id="gHcmGsEf7F4D5HZ_kAoh-6" value="Internet" style="ellipse;shape=cloud;whiteSpace=wrap;html=1;" vertex="1" parent="1">
          <mxGeometry x="293" y="140" width="120" height="80" as="geometry" />
        </mxCell>
        <mxCell id="gHcmGsEf7F4D5HZ_kAoh-7" value="" style="sketch=0;points=[[0.015,0.015,0],[0.985,0.015,0],[0.985,0.985,0],[0.015,0.985,0],[0.25,0,0],[0.5,0,0],[0.75,0,0],[1,0.25,0],[1,0.5,0],[1,0.75,0],[0.75,1,0],[0.5,1,0],[0.25,1,0],[0,0.75,0],[0,0.5,0],[0,0.25,0]];verticalLabelPosition=bottom;html=1;verticalAlign=top;aspect=fixed;align=center;pointerEvents=1;shape=mxgraph.cisco19.rect;prIcon=firewall;fillColor=#FAFAFA;strokeColor=#005073;" vertex="1" parent="1">
          <mxGeometry x="450" y="320" width="64" height="50" as="geometry" />
        </mxCell>
        <mxCell id="gHcmGsEf7F4D5HZ_kAoh-8" value="App" style="sketch=0;points=[[0.015,0.015,0],[0.985,0.015,0],[0.985,0.985,0],[0.015,0.985,0],[0.25,0,0],[0.5,0,0],[0.75,0,0],[1,0.25,0],[1,0.5,0],[1,0.75,0],[0.75,1,0],[0.5,1,0],[0.25,1,0],[0,0.75,0],[0,0.5,0],[0,0.25,0]];verticalLabelPosition=bottom;html=1;verticalAlign=top;aspect=fixed;align=center;pointerEvents=1;shape=mxgraph.cisco19.server;fillColor=#005073;strokeColor=none;" vertex="1" parent="1">
          <mxGeometry x="560" y="280" width="27.500000000000004" height="50" as="geometry" />
        </mxCell>
        <mxCell id="gHcmGsEf7F4D5HZ_kAoh-9" value="DB" style="sketch=0;points=[[0.015,0.015,0],[0.985,0.015,0],[0.985,0.985,0],[0.015,0.985,0],[0.25,0,0],[0.5,0,0],[0.75,0,0],[1,0.25,0],[1,0.5,0],[1,0.75,0],[0.75,1,0],[0.5,1,0],[0.25,1,0],[0,0.75,0],[0,0.5,0],[0,0.25,0]];verticalLabelPosition=bottom;html=1;verticalAlign=top;aspect=fixed;align=center;pointerEvents=1;shape=mxgraph.cisco19.server;fillColor=#005073;strokeColor=none;" vertex="1" parent="1">
          <mxGeometry x="560" y="370" width="27.500000000000004" height="50" as="geometry" />
        </mxCell>
        <mxCell id="gHcmGsEf7F4D5HZ_kAoh-10" value="PROD" style="rounded=0;orthogonalLoop=1;jettySize=auto;html=1;exitX=1;exitY=0.5;exitDx=0;exitDy=0;exitPerimeter=0;endArrow=none;endFill=0;entryX=0;entryY=0.75;entryDx=0;entryDy=0;entryPerimeter=0;" edge="1" parent="1" source="gHcmGsEf7F4D5HZ_kAoh-2" target="gHcmGsEf7F4D5HZ_kAoh-3">
          <mxGeometry relative="1" as="geometry">
            <mxPoint x="197" y="355" as="targetPoint" />
          </mxGeometry>
        </mxCell>
        <mxCell id="gHcmGsEf7F4D5HZ_kAoh-11" style="rounded=0;orthogonalLoop=1;jettySize=auto;html=1;exitX=1;exitY=0.5;exitDx=0;exitDy=0;exitPerimeter=0;entryX=0;entryY=0.25;entryDx=0;entryDy=0;entryPerimeter=0;endArrow=none;endFill=0;" edge="1" parent="1" source="gHcmGsEf7F4D5HZ_kAoh-1" target="gHcmGsEf7F4D5HZ_kAoh-3">
          <mxGeometry relative="1" as="geometry" />
        </mxCell>
        <mxCell id="gHcmGsEf7F4D5HZ_kAoh-12" value="DMZ" style="edgeLabel;html=1;align=center;verticalAlign=middle;resizable=0;points=[];" vertex="1" connectable="0" parent="gHcmGsEf7F4D5HZ_kAoh-11">
          <mxGeometry x="-0.0621" relative="1" as="geometry">
            <mxPoint as="offset" />
          </mxGeometry>
        </mxCell>
        <mxCell id="gHcmGsEf7F4D5HZ_kAoh-13" value="INTRA" style="rounded=0;orthogonalLoop=1;jettySize=auto;html=1;exitX=1;exitY=0.25;exitDx=0;exitDy=0;exitPerimeter=0;entryX=0;entryY=0.5;entryDx=0;entryDy=0;entryPerimeter=0;endArrow=none;endFill=0;" edge="1" parent="1" source="gHcmGsEf7F4D5HZ_kAoh-7" target="gHcmGsEf7F4D5HZ_kAoh-8">
          <mxGeometry relative="1" as="geometry" />
        </mxCell>
        <mxCell id="gHcmGsEf7F4D5HZ_kAoh-14" style="rounded=0;orthogonalLoop=1;jettySize=auto;html=1;exitX=1.002;exitY=0.602;exitDx=0;exitDy=0;exitPerimeter=0;entryX=-0.14;entryY=0.494;entryDx=0;entryDy=0;entryPerimeter=0;endArrow=none;endFill=0;" edge="1" parent="1" source="gHcmGsEf7F4D5HZ_kAoh-7" target="gHcmGsEf7F4D5HZ_kAoh-9">
          <mxGeometry relative="1" as="geometry">
            <mxPoint x="524" y="343" as="sourcePoint" />
            <mxPoint x="570" y="315" as="targetPoint" />
          </mxGeometry>
        </mxCell>
        <mxCell id="gHcmGsEf7F4D5HZ_kAoh-15" value="DB" style="edgeLabel;html=1;align=center;verticalAlign=middle;resizable=0;points=[];" vertex="1" connectable="0" parent="gHcmGsEf7F4D5HZ_kAoh-14">
          <mxGeometry x="0.0758" y="1" relative="1" as="geometry">
            <mxPoint as="offset" />
          </mxGeometry>
        </mxCell>
        <mxCell id="gHcmGsEf7F4D5HZ_kAoh-16" style="edgeStyle=orthogonalEdgeStyle;rounded=0;orthogonalLoop=1;jettySize=auto;html=1;exitX=1;exitY=0.5;exitDx=0;exitDy=0;exitPerimeter=0;entryX=0.137;entryY=0.499;entryDx=0;entryDy=0;entryPerimeter=0;endArrow=none;endFill=0;" edge="1" parent="1" source="gHcmGsEf7F4D5HZ_kAoh-3" target="gHcmGsEf7F4D5HZ_kAoh-5">
          <mxGeometry relative="1" as="geometry" />
        </mxCell>
        <mxCell id="gHcmGsEf7F4D5HZ_kAoh-17" style="edgeStyle=orthogonalEdgeStyle;rounded=0;orthogonalLoop=1;jettySize=auto;html=1;exitX=0;exitY=0.5;exitDx=0;exitDy=0;exitPerimeter=0;entryX=0.804;entryY=0.499;entryDx=0;entryDy=0;entryPerimeter=0;endArrow=none;endFill=0;" edge="1" parent="1" source="gHcmGsEf7F4D5HZ_kAoh-7" target="gHcmGsEf7F4D5HZ_kAoh-5">
          <mxGeometry relative="1" as="geometry" />
        </mxCell>
        <mxCell id="gHcmGsEf7F4D5HZ_kAoh-18" value="ISP1" style="sketch=0;points=[[0.5,0,0],[1,0.5,0],[0.5,1,0],[0,0.5,0],[0.145,0.145,0],[0.8555,0.145,0],[0.855,0.8555,0],[0.145,0.855,0]];verticalLabelPosition=bottom;html=1;verticalAlign=top;aspect=fixed;align=center;pointerEvents=1;shape=mxgraph.cisco19.rect;prIcon=router;fillColor=#FAFAFA;strokeColor=#005073;" vertex="1" parent="1">
          <mxGeometry x="290" y="245" width="35" height="35" as="geometry" />
        </mxCell>
        <mxCell id="gHcmGsEf7F4D5HZ_kAoh-23" style="rounded=0;orthogonalLoop=1;jettySize=auto;html=1;endArrow=none;endFill=0;entryX=0.5;entryY=0;entryDx=0;entryDy=0;entryPerimeter=0;exitX=0.55;exitY=0.95;exitDx=0;exitDy=0;exitPerimeter=0;" edge="1" parent="1" source="gHcmGsEf7F4D5HZ_kAoh-6" target="gHcmGsEf7F4D5HZ_kAoh-19">
          <mxGeometry relative="1" as="geometry">
            <mxPoint x="330" y="240" as="targetPoint" />
          </mxGeometry>
        </mxCell>
        <mxCell id="gHcmGsEf7F4D5HZ_kAoh-19" value="ISP2" style="sketch=0;points=[[0.5,0,0],[1,0.5,0],[0.5,1,0],[0,0.5,0],[0.145,0.145,0],[0.8555,0.145,0],[0.855,0.8555,0],[0.145,0.855,0]];verticalLabelPosition=bottom;html=1;verticalAlign=top;aspect=fixed;align=center;pointerEvents=1;shape=mxgraph.cisco19.rect;prIcon=router;fillColor=#FAFAFA;strokeColor=#005073;" vertex="1" parent="1">
          <mxGeometry x="336" y="245" width="35" height="35" as="geometry" />
        </mxCell>
        <mxCell id="gHcmGsEf7F4D5HZ_kAoh-24" style="rounded=0;orthogonalLoop=1;jettySize=auto;html=1;exitX=0.5;exitY=0;exitDx=0;exitDy=0;exitPerimeter=0;endArrow=none;endFill=0;entryX=0.8;entryY=0.8;entryDx=0;entryDy=0;entryPerimeter=0;" edge="1" parent="1" source="gHcmGsEf7F4D5HZ_kAoh-20" target="gHcmGsEf7F4D5HZ_kAoh-6">
          <mxGeometry relative="1" as="geometry" />
        </mxCell>
        <mxCell id="gHcmGsEf7F4D5HZ_kAoh-20" value="ISPn" style="sketch=0;points=[[0.5,0,0],[1,0.5,0],[0.5,1,0],[0,0.5,0],[0.145,0.145,0],[0.8555,0.145,0],[0.855,0.8555,0],[0.145,0.855,0]];verticalLabelPosition=bottom;html=1;verticalAlign=top;aspect=fixed;align=center;pointerEvents=1;shape=mxgraph.cisco19.rect;prIcon=router;fillColor=#FAFAFA;strokeColor=#005073;" vertex="1" parent="1">
          <mxGeometry x="390" y="245" width="35" height="35" as="geometry" />
        </mxCell>
        <mxCell id="gHcmGsEf7F4D5HZ_kAoh-22" style="rounded=0;orthogonalLoop=1;jettySize=auto;html=1;exitX=0.5;exitY=0;exitDx=0;exitDy=0;exitPerimeter=0;endArrow=none;endFill=0;entryX=0.31;entryY=0.8;entryDx=0;entryDy=0;entryPerimeter=0;" edge="1" parent="1" source="gHcmGsEf7F4D5HZ_kAoh-18" target="gHcmGsEf7F4D5HZ_kAoh-6">
          <mxGeometry relative="1" as="geometry">
            <mxPoint x="310" y="220" as="targetPoint" />
          </mxGeometry>
        </mxCell>
        <mxCell id="gHcmGsEf7F4D5HZ_kAoh-25" style="rounded=0;orthogonalLoop=1;jettySize=auto;html=1;exitX=0.5;exitY=1;exitDx=0;exitDy=0;exitPerimeter=0;endArrow=none;endFill=0;entryX=0.25;entryY=0.25;entryDx=0;entryDy=0;entryPerimeter=0;" edge="1" parent="1" source="gHcmGsEf7F4D5HZ_kAoh-18" target="gHcmGsEf7F4D5HZ_kAoh-5">
          <mxGeometry relative="1" as="geometry" />
        </mxCell>
        <mxCell id="gHcmGsEf7F4D5HZ_kAoh-26" style="edgeStyle=orthogonalEdgeStyle;rounded=0;orthogonalLoop=1;jettySize=auto;html=1;exitX=0.5;exitY=1;exitDx=0;exitDy=0;exitPerimeter=0;entryX=0.509;entryY=0.102;entryDx=0;entryDy=0;entryPerimeter=0;endArrow=none;endFill=0;" edge="1" parent="1" source="gHcmGsEf7F4D5HZ_kAoh-19" target="gHcmGsEf7F4D5HZ_kAoh-5">
          <mxGeometry relative="1" as="geometry" />
        </mxCell>
        <mxCell id="gHcmGsEf7F4D5HZ_kAoh-27" style="rounded=0;orthogonalLoop=1;jettySize=auto;html=1;exitX=0.5;exitY=1;exitDx=0;exitDy=0;exitPerimeter=0;entryX=0.77;entryY=0.211;entryDx=0;entryDy=0;entryPerimeter=0;endArrow=none;endFill=0;" edge="1" parent="1" source="gHcmGsEf7F4D5HZ_kAoh-20" target="gHcmGsEf7F4D5HZ_kAoh-5">
          <mxGeometry relative="1" as="geometry" />
        </mxCell>
        <mxCell id="gHcmGsEf7F4D5HZ_kAoh-5" value="Public" style="ellipse;shape=cloud;whiteSpace=wrap;html=1;" vertex="1" parent="1">
          <mxGeometry x="293.5" y="305" width="120" height="80" as="geometry" />
        </mxCell>
        <mxCell id="jl3WwSV1_X9RbyCpQwBn-2" value="TENANT1" style="text;html=1;align=center;verticalAlign=middle;resizable=0;points=[];autosize=1;strokeColor=none;fillColor=none;fontColor=#990000;" vertex="1" parent="1">
          <mxGeometry x="160" y="247.5" width="80" height="30" as="geometry" />
        </mxCell>
      </root>
    </mxGraphModel>
  </diagram>
</mxfile>
